<svg xmlns="http://www.w3.org/2000/svg" xmlns:xlink="http://www.w3.org/1999/xlink" width="500" height="500" preserveAspectRatio="xMidYMid meet" version="1.0" viewBox="0 0 375 375" zoomAndPan="magnify"><defs><clipPath id="ce760dd351"><path d="M 80.078125 128.050781 L 206.828125 128.050781 L 206.828125 215.050781 L 80.078125 215.050781 Z M 80.078125 128.050781" clip-rule="nonzero"/></clipPath></defs><g clip-path="url(#ce760dd351)"><path fill="#000" fill-opacity="1" fill-rule="nonzero" d="M 352.902344 210.457031 C 354.257812 210.457031 355.359375 211.558594 355.359375 212.914062 C 355.359375 214.273438 354.257812 215.375 352.902344 215.375 L 100.464844 215.375 C 98.035156 215.375 95.824219 214.378906 94.226562 212.78125 C 92.628906 211.183594 91.632812 208.972656 91.632812 206.542969 L 91.632812 175.488281 L 87.253906 175.488281 C 85.542969 175.488281 84.132812 175.039062 83.035156 174.292969 C 81.816406 173.472656 81.011719 172.308594 80.605469 170.984375 L 80.601562 170.988281 C 80.226562 169.761719 80.214844 168.40625 80.554688 167.097656 C 80.953125 165.53125 81.859375 164.003906 83.230469 162.820312 L 120.867188 130.378906 C 122.667969 128.824219 125.003906 128.050781 127.316406 128.050781 C 129.625 128.050781 131.960938 128.824219 133.761719 130.378906 L 159.054688 152.253906 C 160.078125 153.140625 160.191406 154.6875 159.304688 155.710938 C 158.421875 156.734375 156.871094 156.847656 155.847656 155.960938 L 130.554688 134.085938 C 129.691406 133.339844 128.515625 132.96875 127.316406 132.96875 C 126.117188 132.96875 124.9375 133.339844 124.074219 134.085938 L 86.4375 166.53125 C 85.84375 167.039062 85.460938 167.671875 85.296875 168.304688 C 85.183594 168.75 85.179688 169.179688 85.289062 169.546875 L 85.289062 169.554688 C 85.371094 169.820312 85.535156 170.054688 85.78125 170.222656 C 86.101562 170.4375 86.585938 170.570312 87.253906 170.570312 L 94.09375 170.570312 C 95.449219 170.570312 96.550781 171.671875 96.550781 173.027344 L 96.550781 206.542969 C 96.550781 207.617188 96.992188 208.597656 97.703125 209.304688 C 98.414062 210.015625 99.390625 210.457031 100.464844 210.457031 Z M 352.902344 210.457031"/></g><g fill="#000" fill-opacity="1"><g><g><path d="M 22.15625 -17.8125 L 22.15625 -28.5625 L 27.78125 -28.5625 L 27.78125 0 L 22.15625 0 L 22.15625 -13.015625 L 9.359375 -13.015625 L 9.359375 0 L 3.71875 0 L 3.71875 -28.5625 L 9.359375 -28.5625 L 9.359375 -17.8125 Z M 22.15625 -17.8125" transform="translate(108.727416, 198.221692)"/></g></g></g><g fill="#000" fill-opacity="1"><g><g><path d="M 12.515625 0.40625 C 10.410156 0.40625 8.5625 -0.0234375 6.96875 -0.890625 C 5.375 -1.753906 4.132812 -3.019531 3.25 -4.6875 C 2.375 -6.363281 1.9375 -8.390625 1.9375 -10.765625 C 1.9375 -13.128906 2.375 -15.148438 3.25 -16.828125 C 4.132812 -18.515625 5.375 -19.789062 6.96875 -20.65625 C 8.5625 -21.519531 10.410156 -21.953125 12.515625 -21.953125 C 14.628906 -21.953125 16.484375 -21.519531 18.078125 -20.65625 C 19.671875 -19.789062 20.910156 -18.515625 21.796875 -16.828125 C 22.679688 -15.148438 23.125 -13.128906 23.125 -10.765625 C 23.125 -8.390625 22.679688 -6.363281 21.796875 -4.6875 C 20.910156 -3.019531 19.671875 -1.753906 18.078125 -0.890625 C 16.484375 -0.0234375 14.628906 0.40625 12.515625 0.40625 Z M 12.515625 -4.1875 C 15.867188 -4.1875 17.546875 -6.378906 17.546875 -10.765625 C 17.546875 -13.046875 17.113281 -14.710938 16.25 -15.765625 C 15.394531 -16.828125 14.148438 -17.359375 12.515625 -17.359375 C 9.171875 -17.359375 7.5 -15.160156 7.5 -10.765625 C 7.5 -6.378906 9.171875 -4.1875 12.515625 -4.1875 Z M 12.515625 -4.1875" transform="translate(138.348251, 198.221692)"/></g></g></g><g fill="#000" fill-opacity="1"><g><g><path d="M 9.859375 0.40625 C 7.441406 0.40625 5.65625 -0.253906 4.5 -1.578125 C 3.351562 -2.898438 2.78125 -4.796875 2.78125 -7.265625 L 2.78125 -21.546875 L 8.1875 -21.546875 L 8.1875 -7.953125 C 8.1875 -6.640625 8.46875 -5.675781 9.03125 -5.0625 C 9.601562 -4.457031 10.476562 -4.15625 11.65625 -4.15625 C 13.15625 -4.15625 14.320312 -4.644531 15.15625 -5.625 C 15.988281 -6.613281 16.40625 -8.164062 16.40625 -10.28125 L 16.40625 -21.546875 L 21.8125 -21.546875 L 21.8125 0 L 16.625 0 L 16.625 -3.171875 L 16.21875 -3.265625 C 15.519531 -2.023438 14.671875 -1.101562 13.671875 -0.5 C 12.679688 0.101562 11.410156 0.40625 9.859375 0.40625 Z M 9.859375 0.40625" transform="translate(161.504869, 198.221692)"/></g></g></g><g fill="#000" fill-opacity="1"><g><g><path d="M 10.078125 0.40625 C 8.609375 0.40625 7.257812 0.234375 6.03125 -0.109375 C 4.8125 -0.453125 3.769531 -0.925781 2.90625 -1.53125 C 2.039062 -2.132812 1.398438 -2.828125 0.984375 -3.609375 L 3.984375 -6.859375 L 4.390625 -6.859375 C 5.109375 -5.890625 5.957031 -5.164062 6.9375 -4.6875 C 7.914062 -4.207031 8.976562 -3.96875 10.125 -3.96875 C 11.175781 -3.96875 11.96875 -4.15625 12.5 -4.53125 C 13.03125 -4.90625 13.296875 -5.445312 13.296875 -6.15625 C 13.296875 -6.695312 13.101562 -7.15625 12.71875 -7.53125 C 12.34375 -7.90625 11.722656 -8.195312 10.859375 -8.40625 L 8.015625 -9.078125 C 5.878906 -9.585938 4.316406 -10.363281 3.328125 -11.40625 C 2.347656 -12.457031 1.859375 -13.789062 1.859375 -15.40625 C 1.859375 -16.75 2.195312 -17.914062 2.875 -18.90625 C 3.5625 -19.894531 4.523438 -20.648438 5.765625 -21.171875 C 7.015625 -21.691406 8.46875 -21.953125 10.125 -21.953125 C 12.0625 -21.953125 13.664062 -21.671875 14.9375 -21.109375 C 16.21875 -20.554688 17.21875 -19.8125 17.9375 -18.875 L 15.046875 -15.75 L 14.65625 -15.75 C 14.050781 -16.425781 13.375 -16.921875 12.625 -17.234375 C 11.875 -17.546875 11.039062 -17.703125 10.125 -17.703125 C 7.988281 -17.703125 6.921875 -17.035156 6.921875 -15.703125 C 6.921875 -15.140625 7.117188 -14.679688 7.515625 -14.328125 C 7.910156 -13.984375 8.609375 -13.703125 9.609375 -13.484375 L 12.265625 -12.890625 C 14.453125 -12.421875 16.050781 -11.664062 17.0625 -10.625 C 18.070312 -9.59375 18.578125 -8.207031 18.578125 -6.46875 C 18.578125 -5.101562 18.238281 -3.898438 17.5625 -2.859375 C 16.882812 -1.816406 15.90625 -1.007812 14.625 -0.4375 C 13.351562 0.125 11.835938 0.40625 10.078125 0.40625 Z M 10.078125 0.40625" transform="translate(184.544313, 198.221692)"/></g></g></g><g fill="#000" fill-opacity="1"><g><g><path d="M 5.796875 -24.125 C 4.828125 -24.125 4.035156 -24.421875 3.421875 -25.015625 C 2.804688 -25.609375 2.5 -26.375 2.5 -27.3125 C 2.5 -28.226562 2.804688 -28.984375 3.421875 -29.578125 C 4.035156 -30.171875 4.828125 -30.46875 5.796875 -30.46875 C 6.453125 -30.46875 7.03125 -30.332031 7.53125 -30.0625 C 8.039062 -29.789062 8.4375 -29.414062 8.71875 -28.9375 C 9 -28.457031 9.140625 -27.914062 9.140625 -27.3125 C 9.140625 -26.695312 9 -26.144531 8.71875 -25.65625 C 8.4375 -25.175781 8.039062 -24.800781 7.53125 -24.53125 C 7.03125 -24.257812 6.453125 -24.125 5.796875 -24.125 Z M 3.109375 0 L 3.109375 -21.546875 L 8.515625 -21.546875 L 8.515625 0 Z M 3.109375 0" transform="translate(202.525658, 198.221692)"/></g></g></g><g fill="#000" fill-opacity="1"><g><g><path d="M 3.765625 0 L 3.765625 -17.265625 L 0.71875 -17.265625 L 0.71875 -21.5625 L 3.765625 -21.5625 C 3.546875 -22.476562 3.4375 -23.332031 3.4375 -24.125 C 3.4375 -25.488281 3.75 -26.65625 4.375 -27.625 C 5 -28.59375 5.894531 -29.332031 7.0625 -29.84375 C 8.238281 -30.351562 9.632812 -30.609375 11.25 -30.609375 C 13.632812 -30.609375 15.410156 -30.195312 16.578125 -29.375 L 15.3125 -25.390625 L 14.90625 -25.3125 C 14.09375 -25.882812 13.054688 -26.171875 11.796875 -26.171875 C 10.816406 -26.171875 10.082031 -25.929688 9.59375 -25.453125 C 9.113281 -24.984375 8.875 -24.335938 8.875 -23.515625 C 8.875 -23.160156 8.894531 -22.835938 8.9375 -22.546875 C 8.976562 -22.253906 9.0625 -21.925781 9.1875 -21.5625 L 15.328125 -21.5625 L 15.328125 -17.265625 L 9.1875 -17.265625 L 9.1875 0 Z M 3.765625 0" transform="translate(212.246086, 198.221692)"/></g></g></g><g fill="#000" fill-opacity="1"><g><g><path d="M 4.765625 9.140625 C 3.835938 9.140625 3 9.066406 2.25 8.921875 C 1.507812 8.785156 0.90625 8.597656 0.4375 8.359375 L 1.296875 3.984375 L 1.640625 3.875 C 1.960938 4.039062 2.363281 4.175781 2.84375 4.28125 C 3.332031 4.382812 3.832031 4.4375 4.34375 4.4375 C 5.207031 4.4375 5.929688 4.320312 6.515625 4.09375 C 7.097656 3.863281 7.585938 3.484375 7.984375 2.953125 C 8.390625 2.429688 8.75 1.703125 9.0625 0.765625 L 0.46875 -21.546875 L 6.140625 -21.546875 L 11.484375 -6.5625 L 11.953125 -6.5625 L 17.171875 -21.546875 L 22.671875 -21.546875 L 14.03125 1.34375 C 13.332031 3.195312 12.570312 4.6875 11.75 5.8125 C 10.925781 6.9375 9.945312 7.769531 8.8125 8.3125 C 7.6875 8.863281 6.335938 9.140625 4.765625 9.140625 Z M 4.765625 9.140625" transform="translate(225.91144, 198.221692)"/></g></g></g></svg>