<svg xmlns="http://www.w3.org/2000/svg" xmlns:xlink="http://www.w3.org/1999/xlink" width="90" zoomAndPan="magnify" viewBox="0 0 67.5 74.249996" height="99" preserveAspectRatio="xMidYMid meet" version="1.0"><defs><clipPath id="350cc5d48b"><path d="M 0.0898438 0 L 66.171875 0 L 66.171875 73.507812 L 0.0898438 73.507812 Z M 0.0898438 0 " clip-rule="nonzero"/></clipPath><clipPath id="72a388d29c"><path d="M 0.0898438 0 L 37.957031 0 L 37.957031 73.507812 L 0.0898438 73.507812 Z M 0.0898438 0 " clip-rule="nonzero"/></clipPath></defs><g clip-path="url(#350cc5d48b)"><path fill="#242424" d="M 61.382812 35.347656 L 58.828125 32.792969 L 56.273438 30.242188 L 56.273438 63.046875 L 51.167969 63.046875 L 51.167969 25.132812 L 46.058594 20.023438 L 46.058594 68.152344 L 66.488281 68.152344 L 66.488281 73.261719 L 40.949219 73.261719 L 40.949219 7.695312 C 49.464844 16.207031 57.976562 24.722656 66.488281 33.234375 L 66.488281 63.046875 L 61.378906 63.046875 L 61.378906 35.347656 Z M 25.628906 68.152344 L 25.628906 7.695312 L 0.0898438 33.234375 L 0.0898438 73.261719 L 5.199219 73.261719 L 5.199219 35.347656 L 10.304688 30.242188 L 10.304688 73.261719 L 15.414062 73.261719 L 15.414062 25.132812 L 20.519531 20.023438 L 20.519531 73.261719 L 35.84375 73.261719 L 35.84375 2.585938 L 33.289062 0.0351562 L 30.734375 2.585938 L 30.734375 68.152344 Z M 25.628906 68.152344 " fill-opacity="1" fill-rule="nonzero"/></g><g clip-path="url(#72a388d29c)"><path fill="#c49c71" d="M 61.382812 35.347656 L 58.828125 32.792969 L 56.273438 30.242188 L 56.273438 63.046875 L 51.167969 63.046875 L 51.167969 25.132812 L 46.058594 20.023438 L 46.058594 68.152344 L 66.488281 68.152344 L 66.488281 73.261719 L 40.949219 73.261719 L 40.949219 7.695312 C 49.464844 16.207031 57.976562 24.722656 66.488281 33.234375 L 66.488281 63.046875 L 61.378906 63.046875 L 61.378906 35.347656 Z M 25.628906 68.152344 L 25.628906 7.695312 L 0.0898438 33.234375 L 0.0898438 73.261719 L 5.199219 73.261719 L 5.199219 35.347656 L 10.304688 30.242188 L 10.304688 73.261719 L 15.414062 73.261719 L 15.414062 25.132812 L 20.519531 20.023438 L 20.519531 73.261719 L 35.84375 73.261719 L 35.84375 2.585938 L 33.289062 0.0351562 L 30.734375 2.585938 L 30.734375 68.152344 Z M 25.628906 68.152344 " fill-opacity="1" fill-rule="nonzero"/></g></svg>