<svg xmlns="http://www.w3.org/2000/svg" xmlns:xlink="http://www.w3.org/1999/xlink" width="500" height="500" preserveAspectRatio="xMidYMid meet" version="1.0" viewBox="0 0 375 375" zoomAndPan="magnify"><defs><clipPath id="de0048b464"><path d="M 14.917969 14.917969 L 359.917969 14.917969 L 359.917969 359.917969 L 14.917969 359.917969 Z M 14.917969 14.917969" clip-rule="nonzero"/></clipPath></defs><g clip-path="url(#de0048b464)"><path fill="#000" fill-opacity="1" fill-rule="nonzero" d="M 359.917969 187.417969 C 359.917969 190.242188 359.851562 193.0625 359.710938 195.882812 C 359.574219 198.703125 359.367188 201.515625 359.089844 204.328125 C 358.8125 207.136719 358.46875 209.9375 358.050781 212.730469 C 357.636719 215.523438 357.15625 218.304688 356.605469 221.070312 C 356.054688 223.839844 355.4375 226.59375 354.75 229.332031 C 354.0625 232.070312 353.3125 234.792969 352.492188 237.492188 C 351.671875 240.195312 350.785156 242.875 349.835938 245.53125 C 348.886719 248.191406 347.871094 250.824219 346.789062 253.433594 C 345.707031 256.039062 344.566406 258.621094 343.359375 261.171875 C 342.152344 263.722656 340.882812 266.246094 339.550781 268.734375 C 338.21875 271.226562 336.828125 273.679688 335.378906 276.101562 C 333.925781 278.523438 332.417969 280.90625 330.847656 283.253906 C 329.28125 285.601562 327.65625 287.910156 325.972656 290.175781 C 324.292969 292.445312 322.554688 294.671875 320.765625 296.851562 C 318.972656 299.035156 317.128906 301.171875 315.234375 303.261719 C 313.335938 305.355469 311.390625 307.398438 309.394531 309.394531 C 307.398438 311.390625 305.355469 313.335938 303.261719 315.234375 C 301.171875 317.128906 299.035156 318.972656 296.851562 320.765625 C 294.671875 322.554688 292.445312 324.292969 290.175781 325.972656 C 287.910156 327.65625 285.601562 329.28125 283.253906 330.847656 C 280.90625 332.417969 278.523438 333.925781 276.101562 335.378906 C 273.679688 336.828125 271.226562 338.21875 268.734375 339.550781 C 266.246094 340.882812 263.722656 342.152344 261.171875 343.359375 C 258.621094 344.566406 256.039062 345.707031 253.433594 346.789062 C 250.824219 347.871094 248.191406 348.886719 245.53125 349.835938 C 242.875 350.785156 240.195312 351.671875 237.492188 352.492188 C 234.792969 353.3125 232.070312 354.0625 229.332031 354.75 C 226.59375 355.4375 223.839844 356.054688 221.070312 356.605469 C 218.304688 357.15625 215.523438 357.636719 212.730469 358.050781 C 209.9375 358.46875 207.136719 358.8125 204.328125 359.089844 C 201.515625 359.367188 198.703125 359.574219 195.882812 359.710938 C 193.0625 359.851562 190.242188 359.917969 187.417969 359.917969 C 184.597656 359.917969 181.773438 359.851562 178.953125 359.710938 C 176.136719 359.574219 173.320312 359.367188 170.511719 359.089844 C 167.703125 358.8125 164.902344 358.46875 162.109375 358.050781 C 159.316406 357.636719 156.535156 357.15625 153.765625 356.605469 C 150.996094 356.054688 148.242188 355.4375 145.503906 354.75 C 142.765625 354.0625 140.046875 353.3125 137.34375 352.492188 C 134.644531 351.671875 131.964844 350.785156 129.304688 349.835938 C 126.648438 348.886719 124.015625 347.871094 121.40625 346.789062 C 118.796875 345.707031 116.21875 344.566406 113.664062 343.359375 C 111.113281 342.152344 108.59375 340.882812 106.101562 339.550781 C 103.613281 338.21875 101.15625 336.828125 98.734375 335.378906 C 96.3125 333.925781 93.929688 332.417969 91.582031 330.847656 C 89.234375 329.28125 86.929688 327.65625 84.660156 325.972656 C 82.394531 324.292969 80.167969 322.554688 77.984375 320.765625 C 75.804688 318.972656 73.667969 317.128906 71.574219 315.234375 C 69.484375 313.335938 67.4375 311.390625 65.441406 309.394531 C 63.445312 307.398438 61.5 305.355469 59.605469 303.261719 C 57.707031 301.171875 55.863281 299.035156 54.074219 296.851562 C 52.28125 294.671875 50.546875 292.445312 48.863281 290.175781 C 47.183594 287.910156 45.558594 285.601562 43.988281 283.253906 C 42.421875 280.90625 40.910156 278.523438 39.460938 276.101562 C 38.007812 273.679688 36.617188 271.226562 35.285156 268.734375 C 33.957031 266.246094 32.6875 263.722656 31.480469 261.171875 C 30.273438 258.621094 29.128906 256.039062 28.050781 253.433594 C 26.96875 250.824219 25.953125 248.191406 25 245.53125 C 24.050781 242.875 23.164062 240.195312 22.347656 237.492188 C 21.527344 234.792969 20.773438 232.070312 20.085938 229.332031 C 19.402344 226.59375 18.785156 223.839844 18.234375 221.070312 C 17.683594 218.304688 17.199219 215.523438 16.785156 212.730469 C 16.371094 209.9375 16.027344 207.136719 15.75 204.328125 C 15.472656 201.515625 15.265625 198.703125 15.125 195.882812 C 14.988281 193.0625 14.917969 190.242188 14.917969 187.417969 C 14.917969 184.597656 14.988281 181.773438 15.125 178.953125 C 15.265625 176.136719 15.472656 173.320312 15.75 170.511719 C 16.027344 167.703125 16.371094 164.902344 16.785156 162.109375 C 17.199219 159.316406 17.683594 156.535156 18.234375 153.765625 C 18.785156 150.996094 19.402344 148.242188 20.085938 145.503906 C 20.773438 142.765625 21.527344 140.046875 22.347656 137.34375 C 23.164062 134.644531 24.050781 131.964844 25 129.304688 C 25.953125 126.648438 26.96875 124.015625 28.050781 121.40625 C 29.128906 118.796875 30.273438 116.21875 31.480469 113.664062 C 32.6875 111.113281 33.957031 108.59375 35.285156 106.101562 C 36.617188 103.613281 38.007812 101.15625 39.460938 98.734375 C 40.910156 96.3125 42.421875 93.929688 43.988281 91.582031 C 45.558594 89.234375 47.183594 86.929688 48.863281 84.660156 C 50.546875 82.394531 52.28125 80.167969 54.074219 77.984375 C 55.863281 75.804688 57.707031 73.667969 59.605469 71.574219 C 61.5 69.484375 63.445312 67.4375 65.441406 65.441406 C 67.4375 63.445312 69.484375 61.5 71.574219 59.605469 C 73.667969 57.707031 75.804688 55.863281 77.984375 54.074219 C 80.167969 52.28125 82.394531 50.546875 84.660156 48.863281 C 86.929688 47.183594 89.234375 45.558594 91.582031 43.988281 C 93.929688 42.421875 96.3125 40.910156 98.734375 39.460938 C 101.15625 38.007812 103.613281 36.617188 106.101562 35.285156 C 108.59375 33.957031 111.113281 32.6875 113.664062 31.480469 C 116.21875 30.273438 118.796875 29.128906 121.40625 28.050781 C 124.015625 26.96875 126.648438 25.953125 129.304688 25 C 131.964844 24.050781 134.644531 23.164062 137.34375 22.347656 C 140.046875 21.527344 142.765625 20.773438 145.503906 20.085938 C 148.242188 19.402344 150.996094 18.785156 153.765625 18.234375 C 156.535156 17.683594 159.316406 17.199219 162.109375 16.785156 C 164.902344 16.371094 167.703125 16.027344 170.511719 15.75 C 173.320312 15.472656 176.136719 15.265625 178.953125 15.125 C 181.773438 14.988281 184.597656 14.917969 187.417969 14.917969 C 190.242188 14.917969 193.0625 14.988281 195.882812 15.125 C 198.703125 15.265625 201.515625 15.472656 204.328125 15.75 C 207.136719 16.027344 209.9375 16.371094 212.730469 16.785156 C 215.523438 17.199219 218.304688 17.683594 221.070312 18.234375 C 223.839844 18.785156 226.59375 19.402344 229.332031 20.085938 C 232.070312 20.773438 234.792969 21.527344 237.492188 22.347656 C 240.195312 23.164062 242.875 24.050781 245.53125 25 C 248.191406 25.953125 250.824219 26.96875 253.433594 28.050781 C 256.039062 29.128906 258.621094 30.273438 261.171875 31.480469 C 263.722656 32.6875 266.246094 33.957031 268.734375 35.285156 C 271.226562 36.617188 273.679688 38.007812 276.101562 39.460938 C 278.523438 40.910156 280.90625 42.421875 283.253906 43.988281 C 285.601562 45.558594 287.910156 47.183594 290.175781 48.863281 C 292.445312 50.546875 294.671875 52.28125 296.851562 54.074219 C 299.035156 55.863281 301.171875 57.707031 303.261719 59.605469 C 305.355469 61.5 307.398438 63.445312 309.394531 65.441406 C 311.390625 67.4375 313.335938 69.484375 315.234375 71.574219 C 317.128906 73.667969 318.972656 75.804688 320.765625 77.984375 C 322.554688 80.167969 324.292969 82.394531 325.972656 84.660156 C 327.65625 86.929688 329.28125 89.234375 330.847656 91.582031 C 332.417969 93.929688 333.925781 96.3125 335.378906 98.734375 C 336.828125 101.15625 338.21875 103.613281 339.550781 106.101562 C 340.882812 108.59375 342.152344 111.113281 343.359375 113.664062 C 344.566406 116.21875 345.707031 118.796875 346.789062 121.40625 C 347.871094 124.015625 348.886719 126.648438 349.835938 129.304688 C 350.785156 131.964844 351.671875 134.644531 352.492188 137.34375 C 353.3125 140.046875 354.0625 142.765625 354.75 145.503906 C 355.4375 148.242188 356.054688 150.996094 356.605469 153.765625 C 357.15625 156.535156 357.636719 159.316406 358.050781 162.109375 C 358.46875 164.902344 358.8125 167.703125 359.089844 170.511719 C 359.367188 173.320312 359.574219 176.136719 359.710938 178.953125 C 359.851562 181.773438 359.917969 184.597656 359.917969 187.417969 Z M 359.917969 187.417969"/></g><path fill="#fff" fill-opacity="1" fill-rule="nonzero" d="M 268.96875 146.535156 L 151.675781 146.535156 C 151.273438 146.535156 150.875 146.496094 150.476562 146.417969 C 150.082031 146.339844 149.699219 146.222656 149.328125 146.070312 C 148.953125 145.914062 148.601562 145.726562 148.265625 145.503906 C 147.929688 145.277344 147.621094 145.023438 147.335938 144.738281 C 147.050781 144.453125 146.796875 144.144531 146.574219 143.808594 C 146.347656 143.472656 146.160156 143.121094 146.007812 142.75 C 145.851562 142.375 145.734375 141.992188 145.65625 141.597656 C 145.578125 141.203125 145.539062 140.804688 145.539062 140.398438 L 145.539062 128.386719 C 145.539062 127.984375 145.578125 127.585938 145.65625 127.191406 C 145.734375 126.796875 145.851562 126.410156 146.007812 126.039062 C 146.160156 125.667969 146.347656 125.3125 146.574219 124.976562 C 146.796875 124.644531 147.050781 124.332031 147.335938 124.046875 C 147.621094 123.761719 147.929688 123.507812 148.265625 123.285156 C 148.601562 123.0625 148.953125 122.871094 149.328125 122.71875 C 149.699219 122.5625 150.082031 122.449219 150.476562 122.367188 C 150.875 122.289062 151.273438 122.25 151.675781 122.25 L 268.96875 122.25 C 269.371094 122.25 269.769531 122.289062 270.164062 122.367188 C 270.5625 122.449219 270.945312 122.5625 271.316406 122.71875 C 271.6875 122.871094 272.042969 123.0625 272.378906 123.285156 C 272.710938 123.507812 273.023438 123.761719 273.308594 124.046875 C 273.59375 124.332031 273.847656 124.644531 274.070312 124.976562 C 274.292969 125.3125 274.484375 125.667969 274.636719 126.039062 C 274.792969 126.410156 274.910156 126.796875 274.988281 127.191406 C 275.066406 127.585938 275.105469 127.984375 275.105469 128.386719 L 275.105469 140.398438 C 275.105469 140.804688 275.066406 141.203125 274.988281 141.597656 C 274.910156 141.992188 274.792969 142.375 274.636719 142.75 C 274.484375 143.121094 274.292969 143.472656 274.070312 143.808594 C 273.847656 144.144531 273.59375 144.453125 273.308594 144.738281 C 273.023438 145.023438 272.710938 145.277344 272.378906 145.503906 C 272.042969 145.726562 271.6875 145.914062 271.316406 146.070312 C 270.945312 146.222656 270.5625 146.339844 270.164062 146.417969 C 269.769531 146.496094 269.371094 146.535156 268.96875 146.535156 Z M 268.96875 146.535156"/><path fill="#fff" fill-opacity="1" fill-rule="nonzero" d="M 268.96875 199.5625 L 151.675781 199.5625 C 151.273438 199.5625 150.875 199.523438 150.476562 199.445312 C 150.082031 199.363281 149.699219 199.25 149.328125 199.09375 C 148.953125 198.941406 148.601562 198.75 148.265625 198.527344 C 147.929688 198.304688 147.621094 198.050781 147.335938 197.765625 C 147.050781 197.480469 146.796875 197.167969 146.574219 196.835938 C 146.347656 196.5 146.160156 196.144531 146.007812 195.773438 C 145.851562 195.402344 145.734375 195.015625 145.65625 194.621094 C 145.578125 194.226562 145.539062 193.828125 145.539062 193.425781 L 145.539062 181.414062 C 145.539062 181.007812 145.578125 180.609375 145.65625 180.214844 C 145.734375 179.820312 145.851562 179.4375 146.007812 179.0625 C 146.160156 178.691406 146.347656 178.339844 146.574219 178.003906 C 146.796875 177.667969 147.050781 177.359375 147.335938 177.074219 C 147.621094 176.789062 147.929688 176.535156 148.265625 176.308594 C 148.601562 176.085938 148.953125 175.898438 149.328125 175.742188 C 149.699219 175.589844 150.082031 175.472656 150.476562 175.394531 C 150.875 175.316406 151.273438 175.277344 151.675781 175.277344 L 268.96875 175.277344 C 269.371094 175.277344 269.769531 175.316406 270.164062 175.394531 C 270.5625 175.472656 270.945312 175.589844 271.316406 175.742188 C 271.6875 175.898438 272.042969 176.085938 272.378906 176.308594 C 272.710938 176.535156 273.023438 176.789062 273.308594 177.074219 C 273.59375 177.359375 273.847656 177.667969 274.070312 178.003906 C 274.292969 178.339844 274.484375 178.691406 274.636719 179.0625 C 274.792969 179.4375 274.910156 179.820312 274.988281 180.214844 C 275.066406 180.609375 275.105469 181.007812 275.105469 181.414062 L 275.105469 193.425781 C 275.105469 193.828125 275.066406 194.226562 274.988281 194.621094 C 274.910156 195.015625 274.792969 195.402344 274.636719 195.773438 C 274.484375 196.144531 274.292969 196.5 274.070312 196.835938 C 273.847656 197.167969 273.59375 197.480469 273.308594 197.765625 C 273.023438 198.050781 272.710938 198.304688 272.378906 198.527344 C 272.042969 198.75 271.6875 198.941406 271.316406 199.09375 C 270.945312 199.25 270.5625 199.363281 270.164062 199.445312 C 269.769531 199.523438 269.371094 199.5625 268.96875 199.5625 Z M 268.96875 199.5625"/><path fill="#fff" fill-opacity="1" fill-rule="nonzero" d="M 268.96875 252.585938 L 151.675781 252.585938 C 151.273438 252.585938 150.875 252.546875 150.476562 252.46875 C 150.082031 252.390625 149.699219 252.273438 149.328125 252.121094 C 148.953125 251.964844 148.601562 251.777344 148.265625 251.550781 C 147.929688 251.328125 147.621094 251.074219 147.335938 250.789062 C 147.050781 250.503906 146.796875 250.195312 146.574219 249.859375 C 146.347656 249.523438 146.160156 249.171875 146.007812 248.796875 C 145.851562 248.425781 145.734375 248.042969 145.65625 247.648438 C 145.578125 247.253906 145.539062 246.851562 145.539062 246.449219 L 145.539062 234.4375 C 145.539062 234.035156 145.578125 233.636719 145.65625 233.242188 C 145.734375 232.847656 145.851562 232.460938 146.007812 232.089844 C 146.160156 231.71875 146.347656 231.363281 146.574219 231.027344 C 146.796875 230.695312 147.050781 230.382812 147.335938 230.097656 C 147.621094 229.8125 147.929688 229.558594 148.265625 229.335938 C 148.601562 229.113281 148.953125 228.921875 149.328125 228.769531 C 149.699219 228.613281 150.082031 228.496094 150.476562 228.417969 C 150.875 228.339844 151.273438 228.300781 151.675781 228.300781 L 268.96875 228.300781 C 269.371094 228.300781 269.769531 228.339844 270.164062 228.417969 C 270.5625 228.496094 270.945312 228.613281 271.316406 228.769531 C 271.6875 228.921875 272.042969 229.113281 272.378906 229.335938 C 272.710938 229.558594 273.023438 229.8125 273.308594 230.097656 C 273.59375 230.382812 273.847656 230.695312 274.070312 231.027344 C 274.292969 231.363281 274.484375 231.71875 274.636719 232.089844 C 274.792969 232.460938 274.910156 232.847656 274.988281 233.242188 C 275.066406 233.636719 275.105469 234.035156 275.105469 234.4375 L 275.105469 246.449219 C 275.105469 246.851562 275.066406 247.253906 274.988281 247.648438 C 274.910156 248.042969 274.792969 248.425781 274.636719 248.796875 C 274.484375 249.171875 274.292969 249.523438 274.070312 249.859375 C 273.847656 250.195312 273.59375 250.503906 273.308594 250.789062 C 273.023438 251.074219 272.710938 251.328125 272.378906 251.550781 C 272.042969 251.777344 271.6875 251.964844 271.316406 252.121094 C 270.945312 252.273438 270.5625 252.390625 270.164062 252.46875 C 269.769531 252.546875 269.371094 252.585938 268.96875 252.585938 Z M 268.96875 252.585938"/><path fill="#fff" fill-opacity="1" fill-rule="nonzero" d="M 124.679688 134.394531 C 124.679688 135.210938 124.597656 136.023438 124.4375 136.828125 C 124.277344 137.628906 124.042969 138.410156 123.730469 139.167969 C 123.414062 139.921875 123.03125 140.640625 122.578125 141.324219 C 122.121094 142.003906 121.605469 142.632812 121.023438 143.214844 C 120.445312 143.792969 119.816406 144.308594 119.136719 144.765625 C 118.453125 145.21875 117.734375 145.601562 116.980469 145.917969 C 116.222656 146.230469 115.441406 146.464844 114.640625 146.625 C 113.835938 146.785156 113.023438 146.867188 112.207031 146.867188 L 112.203125 146.867188 C 111.386719 146.867188 110.574219 146.785156 109.773438 146.625 C 108.96875 146.464844 108.1875 146.230469 107.433594 145.917969 C 106.675781 145.601562 105.957031 145.21875 105.277344 144.765625 C 104.59375 144.308594 103.964844 143.792969 103.386719 143.214844 C 102.804688 142.632812 102.289062 142.003906 101.835938 141.324219 C 101.378906 140.640625 100.996094 139.921875 100.683594 139.167969 C 100.367188 138.410156 100.132812 137.628906 99.972656 136.828125 C 99.8125 136.023438 99.730469 135.210938 99.730469 134.394531 C 99.730469 133.574219 99.8125 132.761719 99.972656 131.960938 C 100.132812 131.15625 100.367188 130.375 100.683594 129.621094 C 100.996094 128.863281 101.378906 128.144531 101.835938 127.464844 C 102.289062 126.78125 102.804688 126.152344 103.386719 125.574219 C 103.964844 124.992188 104.59375 124.476562 105.277344 124.023438 C 105.957031 123.566406 106.675781 123.183594 107.433594 122.871094 C 108.1875 122.554688 108.96875 122.320312 109.773438 122.160156 C 110.574219 122 111.386719 121.921875 112.203125 121.921875 L 112.207031 121.921875 C 113.023438 121.921875 113.835938 122 114.640625 122.160156 C 115.441406 122.320312 116.222656 122.554688 116.980469 122.871094 C 117.734375 123.183594 118.453125 123.566406 119.136719 124.023438 C 119.816406 124.476562 120.445312 124.992188 121.023438 125.574219 C 121.605469 126.152344 122.121094 126.78125 122.578125 127.464844 C 123.03125 128.144531 123.414062 128.863281 123.730469 129.621094 C 124.042969 130.375 124.277344 131.15625 124.4375 131.960938 C 124.597656 132.761719 124.679688 133.574219 124.679688 134.394531 Z M 124.679688 134.394531"/><path fill="#fff" fill-opacity="1" fill-rule="nonzero" d="M 124.679688 187.417969 C 124.679688 188.238281 124.597656 189.050781 124.4375 189.851562 C 124.277344 190.65625 124.042969 191.433594 123.730469 192.191406 C 123.414062 192.949219 123.03125 193.667969 122.578125 194.347656 C 122.121094 195.03125 121.605469 195.660156 121.023438 196.238281 C 120.445312 196.816406 119.816406 197.335938 119.136719 197.789062 C 118.453125 198.246094 117.734375 198.628906 116.980469 198.941406 C 116.222656 199.253906 115.441406 199.492188 114.640625 199.652344 C 113.835938 199.8125 113.023438 199.890625 112.207031 199.890625 L 112.203125 199.890625 C 111.386719 199.890625 110.574219 199.8125 109.773438 199.652344 C 108.96875 199.492188 108.1875 199.253906 107.433594 198.941406 C 106.675781 198.628906 105.957031 198.246094 105.277344 197.789062 C 104.59375 197.335938 103.964844 196.816406 103.386719 196.238281 C 102.804688 195.660156 102.289062 195.03125 101.835938 194.347656 C 101.378906 193.667969 100.996094 192.949219 100.683594 192.191406 C 100.367188 191.433594 100.132812 190.65625 99.972656 189.851562 C 99.8125 189.050781 99.730469 188.238281 99.730469 187.417969 C 99.730469 186.597656 99.8125 185.789062 99.972656 184.984375 C 100.132812 184.183594 100.367188 183.402344 100.683594 182.644531 C 100.996094 181.886719 101.378906 181.167969 101.835938 180.488281 C 102.289062 179.808594 102.804688 179.179688 103.386719 178.597656 C 103.964844 178.019531 104.59375 177.503906 105.277344 177.046875 C 105.957031 176.59375 106.675781 176.207031 107.433594 175.894531 C 108.1875 175.582031 108.96875 175.34375 109.773438 175.183594 C 110.574219 175.023438 111.386719 174.945312 112.203125 174.945312 L 112.207031 174.945312 C 113.023438 174.945312 113.835938 175.023438 114.640625 175.183594 C 115.441406 175.34375 116.222656 175.582031 116.980469 175.894531 C 117.734375 176.207031 118.453125 176.59375 119.136719 177.046875 C 119.816406 177.503906 120.445312 178.019531 121.023438 178.597656 C 121.605469 179.179688 122.121094 179.808594 122.578125 180.488281 C 123.03125 181.167969 123.414062 181.886719 123.730469 182.644531 C 124.042969 183.402344 124.277344 184.183594 124.4375 184.984375 C 124.597656 185.789062 124.679688 186.597656 124.679688 187.417969 Z M 124.679688 187.417969"/><path fill="#fff" fill-opacity="1" fill-rule="nonzero" d="M 124.679688 240.445312 C 124.679688 241.261719 124.597656 242.074219 124.4375 242.878906 C 124.277344 243.679688 124.042969 244.460938 123.730469 245.21875 C 123.414062 245.972656 123.03125 246.691406 122.578125 247.375 C 122.121094 248.054688 121.605469 248.683594 121.023438 249.265625 C 120.445312 249.84375 119.816406 250.359375 119.136719 250.816406 C 118.453125 251.269531 117.734375 251.65625 116.980469 251.96875 C 116.222656 252.28125 115.441406 252.519531 114.640625 252.675781 C 113.835938 252.835938 113.023438 252.917969 112.207031 252.917969 L 112.203125 252.917969 C 111.386719 252.917969 110.574219 252.835938 109.773438 252.675781 C 108.96875 252.519531 108.1875 252.28125 107.433594 251.96875 C 106.675781 251.65625 105.957031 251.269531 105.277344 250.816406 C 104.59375 250.359375 103.964844 249.84375 103.386719 249.265625 C 102.804688 248.683594 102.289062 248.054688 101.835938 247.375 C 101.378906 246.691406 100.996094 245.972656 100.683594 245.21875 C 100.367188 244.460938 100.132812 243.679688 99.972656 242.878906 C 99.8125 242.074219 99.730469 241.261719 99.730469 240.445312 C 99.730469 239.625 99.8125 238.8125 99.972656 238.011719 C 100.132812 237.207031 100.367188 236.425781 100.683594 235.671875 C 100.996094 234.914062 101.378906 234.195312 101.835938 233.515625 C 102.289062 232.832031 102.804688 232.203125 103.386719 231.625 C 103.964844 231.046875 104.59375 230.527344 105.277344 230.074219 C 105.957031 229.617188 106.675781 229.234375 107.433594 228.921875 C 108.1875 228.605469 108.96875 228.371094 109.773438 228.210938 C 110.574219 228.050781 111.386719 227.972656 112.203125 227.972656 L 112.207031 227.972656 C 113.023438 227.972656 113.835938 228.050781 114.640625 228.210938 C 115.441406 228.371094 116.222656 228.605469 116.980469 228.921875 C 117.734375 229.234375 118.453125 229.617188 119.136719 230.074219 C 119.816406 230.527344 120.445312 231.046875 121.023438 231.625 C 121.605469 232.203125 122.121094 232.832031 122.578125 233.515625 C 123.03125 234.195312 123.414062 234.914062 123.730469 235.671875 C 124.042969 236.425781 124.277344 237.207031 124.4375 238.011719 C 124.597656 238.8125 124.679688 239.625 124.679688 240.445312 Z M 124.679688 240.445312"/></svg>